<svg xmlns="http://www.w3.org/2000/svg" width="144" height="249" viewBox="0 0 144 249"><g fill="#FFF"><path d="M58.045 59.563a2.02 2.02 0 0 0-.539.077 2.06 2.06 0 0 1-.538.077c-.171 0-.351-.051-.539-.154-.188-.103-.282-.308-.282-.615 0-.341.068-.513.205-.513.068 0 .136.034.205.103.341-.068.606-.18.794-.333.188-.154.367-.23.539-.23.17 0 .324.085.461.256 0-.376.495-.632 1.487-.769.991-.136 2.426-.393 4.307-.769a37.21 37.21 0 0 0 1.025-2.589c.308-.872.615-1.751.922-2.641l.051-.103-.205-.205a.494.494 0 0 1-.153-.359c0-.308.103-.564.307-.769.205-.205.308-.495.308-.872 0-.205-.069-.333-.205-.384a1.17 1.17 0 0 0-.41-.077c-.41 0-.744.077-1 .231s-.47.23-.641.23a.51.51 0 0 1-.41-.179.646.646 0 0 1-.154-.436c0-.103.017-.205.051-.308.034-.103.085-.222.154-.359a3.13 3.13 0 0 0-.539.051 2.94 2.94 0 0 1-.538.051c-.171 0-.359-.042-.564-.128-.205-.085-.308-.316-.308-.692.068-.273.154-.41.256-.41.034 0 .085.035.154.103a3.65 3.65 0 0 1 .41-.077c.136-.017.29-.026.461-.026 0-.034-.009-.051-.026-.051-.018 0-.025-.017-.025-.051.205-.273.41-.41.615-.41.136 0 .29.103.461.308 0-.205.154-.375.461-.513a5.37 5.37 0 0 1 1.077-.333c.41-.085.828-.145 1.256-.18.427-.033.743-.084.948-.154.341-.17.521-.367.539-.589.017-.222.128-.436.333-.641.308.034.624.051.949.051h1.948c.324 0 .658-.034 1-.103a1.61 1.61 0 0 0-.103.461c0 .171.103.256.308.256.068 0 .154-.008.256-.026.103-.017.188-.025.256-.025s.12.009.154.025a.342.342 0 0 0 .154.026.977.977 0 0 0 .385-.077.968.968 0 0 1 .384-.077c.136 0 .222.034.256.103.136 0 .264-.008.385-.026.119-.017.247-.025.384-.025.068 0 .145.009.231.025.084.018.162.026.23.026.444 0 .879-.068 1.307-.205a3.983 3.983 0 0 1 1.205-.205c.41 0 .82.103 1.23.308a4.49 4.49 0 0 0 .615-.18c.239-.085.393-.128.461-.128s.128.018.179.051a.317.317 0 0 0 .18.051 7.056 7.056 0 0 1 1.692-.308 29.83 29.83 0 0 1 1.743-.051h1.589c.171 0 .341-.026.513-.077.171-.051.341-.077.513-.077.103 0 .273.009.513.025.239.018.495.051.769.103.273.051.521.12.744.205.222.086.35.214.384.385 0-.103.034-.188.103-.256a.74.74 0 0 1 .308.051c0-.205.111-.325.333-.359.222-.034.384-.051.487-.051.171 0 .41.12.718.359.068 0 .111-.008.128-.026.017-.017.059-.025.128-.025.136 0 .316.025.539.077.222.051.367.111.436.18h.308c.171 0 .359.018.564.051.205.034.359.12.461.256a1.08 1.08 0 0 1-.615.231 7.52 7.52 0 0 1-.461.025c-.069 0-.12-.017-.154-.051 0 .069-.06.112-.179.128-.12.018-.214.025-.282.025a.736.736 0 0 0-.308-.051c-.103 0-.291.035-.564.103a1.65 1.65 0 0 1-.41.051c0 .069.068.121.205.154.136.035.29.061.461.077.171.018.35.035.539.051.188.018.333.043.436.077.068 0 .085-.008.051-.025-.034-.017-.018-.026.051-.026l-.359-.154c.034 0 .06-.008.077-.025s.042-.026.077-.026c.103 0 .316.009.641.026.324.018.667.035 1.025.051.359.018.718.06 1.077.128.359.069.641.154.846.256.034-.033.103-.051.205-.051s.256.035.461.103H96.8c0 .035.017.051.051.051a4.455 4.455 0 0 0 .974-.102l.41.154c.034-.136.136-.205.308-.205.136 0 .367.026.692.077.325.051.641.12.949.205.308.085.581.179.82.282.239.103.359.223.359.359 0 .205-.12.308-.359.308-.205 0-.41-.034-.615-.103-.103 0-.205.009-.308.026a1.777 1.777 0 0 1-.308.025 8.611 8.611 0 0 1-1.692-.154 1.12 1.12 0 0 1-.359.051h-.359a.562.562 0 0 1-.256.051c-.069 0-.146-.034-.231-.103-.085-.068-.214-.103-.384-.103-.069 0-.12.018-.154.051-.171 0-.325-.008-.461-.025a3.767 3.767 0 0 0-.461-.026h-.154a.84.84 0 0 1-.205-.025.722.722 0 0 0-.154-.026c-.069 0-.188.018-.359.051a1.632 1.632 0 0 0-.359.103h-.872c-.308 0-.598-.034-.872-.103-.034.035-.085.051-.154.051-.069 0-.12-.017-.154-.051-.103 0-.154.069-.154.205.034.069.18.154.436.256s.436.154.538.154c0 .171-.069.256-.205.256-.137 0-.265-.008-.384-.025a2.753 2.753 0 0 0-.385-.026c-.274 0-.479.026-.615.077a1.051 1.051 0 0 1-.359.077c-.069 0-.223-.025-.461-.077-.239-.051-.376-.111-.41-.18-.034.035-.111.051-.23.051h-1.359c-.069 0-.146-.008-.23-.025a1.208 1.208 0 0 0-.231-.026c-.171 0-.333.009-.487.026a6.16 6.16 0 0 0-.487.077c.034 0-.051-.059-.256-.179a9.267 9.267 0 0 1-.461-.282c-.274.035-.41.069-.41.103 0 .035.093.069.282.103.188.035.282.069.282.103-.069 0-.223-.017-.461-.051a4.762 4.762 0 0 0-.667-.051c-.582.137-1.291.205-2.128.205h-2.23a.84.84 0 0 1-.205-.025.853.853 0 0 0-.205-.026c0 .035-.103.086-.308.154a7.616 7.616 0 0 1-.769.205c-.308.069-.633.128-.974.18a6.076 6.076 0 0 1-.872.077c-.205 0-.428-.034-.667-.103a2.324 2.324 0 0 0-.615-.103c-.274 0-.538.051-.794.154s-.522.154-.795.154c-.137 0-.256-.008-.359-.025a2.227 2.227 0 0 0-.359-.026c-.137 0-.342.018-.615.051-.274.035-.573.077-.897.128l-.974.154a7.21 7.21 0 0 0-.846.179c-.137 0-.205-.034-.205-.103v-.051a6.523 6.523 0 0 1-.256.641 4.736 4.736 0 0 0-.256.692c0 .376-.111.692-.333.949a1.258 1.258 0 0 0-.333.846 5.07 5.07 0 0 1-.513 1.641l-.564 1.128.103.154c0 .171-.051.461-.154.872s-.274.735-.513.974c.068 0 .12.009.154.025a.342.342 0 0 0 .154.026c.103 0 .222-.017.359-.051.136-.034.341-.136.615-.308.034 0 .068.018.103.051.273 0 .564-.034.872-.103.308-.068.598-.103.872-.103h.513c.103 0 .196-.008.282-.026.085-.017.196-.025.333-.025l.103.051c.034.034.068.051.103.051.034-.034.103-.051.205-.051.034 0 .068.009.103.025a.216.216 0 0 0 .103.026c.034 0 .068-.017.103-.051.034-.034.085-.051.154-.051h.051c.034-.034.103-.051.205-.051s.205.025.308.077.205.095.308.128l.051.103c.068 0 .12-.008.154-.026a.358.358 0 0 1 .154-.025c.103 0 .256.034.461.103l.513-.103c.068 0 .136.025.205.077.068.051.103.128.103.231 0 .171-.06.282-.179.333a.857.857 0 0 0-.282.18h-.103v-.103c.034-.171.12-.256.256-.256.068 0 .119.018.154.051 0-.068-.035-.136-.103-.205 0 .069-.154.146-.461.23a7.504 7.504 0 0 0-.718.231c0-.034-.034-.051-.103-.051h-.205c0 .069.017.103.051.103 0 .034.017.051.051.051.068 0 .12-.008.154-.026a.358.358 0 0 1 .154-.025c.068 0 .103.034.103.103v.051l.203-.104c.103 0 .171.12.205.359a.548.548 0 0 1-.103.308.548.548 0 0 0-.103.308c0 .069.017.12.051.154h.051a.575.575 0 0 1 .051.256c0 .137-.146.265-.436.384-.291.12-.641.231-1.051.333s-.846.179-1.307.23-.864.077-1.205.077c-.171 0-.359.085-.564.256a1.086 1.086 0 0 1-.718.256h-.82c-.342 0-.692.043-1.051.128a4.72 4.72 0 0 1-1.103.128c0 .308-.077.658-.23 1.051a6.204 6.204 0 0 0-.333 1.154 12.24 12.24 0 0 1-.18.794 2.644 2.644 0 0 1-.179.487 3.555 3.555 0 0 1-.205.359c-.035 0-.051-.026-.051-.077s-.018-.077-.051-.077a39.728 39.728 0 0 0-.718 2.512 222.5 222.5 0 0 1-.539 2.102 23.709 23.709 0 0 0-.384 1.641c0-.034.094-.103.282-.205a6.51 6.51 0 0 0 .436-.256l.205-.154c-.035-.034-.051-.068-.051-.103v-.051c.033 0 .077.018.128.051a.412.412 0 0 0 .231.051l.103-.103c.068-.068.119-.103.154-.103.273-.239.495-.436.667-.589.17-.154.35-.308.538-.461.188-.154.333-.265.436-.333a10.52 10.52 0 0 1 1.256-.948c.29-.188.555-.35.794-.487.239-.136.393-.205.461-.205h.051c.034-.068.136-.136.308-.205.171-.068.239-.103.205-.103l.051-.051c.068-.103.18-.145.333-.128a.879.879 0 0 0 .384-.026h.103c.103-.068.205-.128.308-.179s.222-.077.359-.077l.308-.256.154-.154c.034 0 .094.051.18.154.085.103.128.188.128.256 0 .069-.034.128-.103.18a.5.5 0 0 0-.154.179l-.101.103-.051-.103c0-.17.068-.256.205-.256h.103c-.069-.103-.12-.154-.154-.154 0-.068-.018-.068-.051 0a4.995 4.995 0 0 1-.154.282 1.3 1.3 0 0 1-.282.333.582.582 0 0 1-.385.154c-.034.035-.085.043-.154.026-.069-.017-.103-.008-.103.025 0 .103.034.154.103.154.068 0 .128-.025.18-.077s.11-.077.179-.077l.051.103c.034-.136.085-.205.154-.205.068 0 .154.069.256.205 0 .069-.018.121-.051.154.034.069.051.154.051.256s.034.188.103.256l.051-.051c.103.069.154.137.154.205 0 .137-.197.376-.589.718-.394.342-.846.71-1.359 1.103s-1.025.761-1.538 1.102l-1.077.718c-.342.342-.727.675-1.153 1-.428.325-.71.487-.846.487-.069 0-.172-.11-.308-.333-.137-.222-.24-.333-.308-.333-.035 0-.06.026-.077.077-.018.051-.06.077-.128.077l-.102-.053-.103.154c-.172.069-.291.154-.359.256l-.103.154h-.103c-.069 0-.205.035-.41.103.034 0 .051.035.051.103a1.522 1.522 0 0 1-.308.18c-.171.085-.256.146-.256.179-.035-.068-.077-.103-.128-.103s-.094-.017-.128-.051v-.154a.492.492 0 0 1-.359.154c-.069 0-.137-.034-.205-.103-.069-.068-.103-.136-.103-.205v-.051c-.035-.034-.051-.068-.051-.103-.035 0-.06.035-.077.103-.018.069-.043.103-.077.103v-.103a.714.714 0 0 0 .051-.308h-.051c-.035 0-.103.051-.205.154.034-.034.051-.136.051-.308 0-.136-.086-.205-.256-.205l-.256.154c-.035 0-.06-.051-.077-.154-.018-.103-.111-.154-.282-.154l-.051.154c-.035-.136-.069-.205-.103-.205-.137 0-.249.069-.333.205-.085.137-.163.205-.23.205-.103 0-.163-.059-.18-.179a3.025 3.025 0 0 1-.025-.436c.034-.239.068-.529.103-.872.034-.341.077-.683.128-1.025.051-.341.12-.641.205-.897.085-.256.18-.436.282-.539.103-.581.179-.991.23-1.23.051-.238.103-.443.154-.615.051-.17.128-.367.231-.589.103-.222.239-.606.41-1.153.136-.444.29-.991.461-1.641.17-.649.393-1.282.667-1.897-.547 0-1.128.085-1.743.256 0-.273-.06-.444-.18-.513a.768.768 0 0 0-.384-.103c-.479 0-.846.077-1.103.23s-.47.231-.641.231a.558.558 0 0 1-.436-.205.678.678 0 0 1-.179-.461c0-.103.017-.205.051-.308.035-.102.086-.221.155-.358zm3.948 12.509l-.103.103c.068 0 .103-.034.103-.103zm.153-.154c-.103 0-.154.086-.154.256.034-.034.051-.059.051-.077 0-.017.017-.042.051-.077 0-.034.017-.051.051-.051v-.051zM57.276 132.876c-.035-.034.034-.154.205-.359.17-.205.256-.341.256-.41a7.18 7.18 0 0 1-.18-.282c-.051-.085-.094-.008-.128.23v-.128-.436c0-.17.008-.315.025-.436.017-.12.042-.162.077-.128a.812.812 0 0 0 .205-.308c.068-.239.103-.478.103-.718 0-.239.051-.495.154-.769.103-.239.136-.367.103-.384-.035-.017.017-.18.154-.487.068-.103.128-.213.179-.333.051-.12.162-.162.333-.128a.349.349 0 0 0 .025-.23c-.018-.085.008-.162.077-.231a.572.572 0 0 0 .051-.256c-.103-.205-.069-.359.103-.461h.051c-.069-.238-.051-.41.051-.512.103-.068.154-.18.154-.333s.068-.264.205-.333v-.256c0-.136.017-.205.051-.205h.051c-.137-.205-.137-.444 0-.718.034-.034.051-.06.051-.077s.017-.042.051-.077v-.103l.051-.051c.136-.034.222-.103.256-.205 0-.171.034-.393.103-.667a.432.432 0 0 1 0-.41c.239-.581.444-1.162.615-1.743.17-.581.341-1.179.513-1.794.068-.205.145-.385.23-.539.085-.154.162-.315.231-.487a6.01 6.01 0 0 0 .179-.513c.051-.171.111-.341.18-.513.068-.17.051-.367-.051-.59-.103-.222-.12-.418-.051-.589.034-.034.051-.059.051-.077 0-.017.017-.042.051-.077a1.69 1.69 0 0 1 .179-.487c.085-.154.162-.299.231-.436 0-.068.017-.119.051-.154.068-.068.119-.103.154-.103 0-.103-.018-.17-.051-.205h.103c.068-.478.205-.888.41-1.23a1.08 1.08 0 0 1 .051-.564c.034-.034.051-.085.051-.154 0-.103.008-.11.025-.025.017.085-.025.06-.128-.077-.103-.136-.205-.205-.308-.205 0-.068.042-.273.128-.615.085-.341.188-.7.308-1.077.12-.375.282-.872.487-1.487.034 0 .11-.103.23-.308.12-.205.248-.436.385-.692.136-.256.256-.513.359-.769s.17-.436.205-.539c0-.033.033-.119.103-.256.068-.136.205-.282.41-.436s.461-.29.769-.41c.308-.119.684-.179 1.128-.179h.513c.103.069.205.06.308-.026.103-.085.188-.094.256-.025a6.25 6.25 0 0 1-.564 1.64.82.82 0 0 1 .051.487c-.034.154 0 .265.103.333.034 0 .042.137.026.41a7.97 7.97 0 0 1-.128.949c-.069.359-.146.752-.23 1.179-.086.428-.18.794-.282 1.102-.069 0-.137.035-.205.103-.034 0-.051-.008-.051-.025s-.018-.026-.051-.026l-.205.461v.051a.926.926 0 0 1 .026.564c-.051.171-.111.359-.18.564a1.42 1.42 0 0 0-.077.18 1.576 1.576 0 0 1-.077.179v.154c.034.24 0 .419-.103.539-.103.12-.205.23-.308.333l-4.46 14.458c-.069.274-.154.624-.256 1.051a9.918 9.918 0 0 0-.205 1.051c.205-.034.256-.051.154-.051h-.359c-.137 0-.231.009-.282.026-.051.018.06-.008.333-.077a.579.579 0 0 0 .128-.077.638.638 0 0 1 .128-.077c.239-.205.495-.315.769-.333.273-.017.546-.026.82-.026.103 0 .264-.008.487-.025a9.07 9.07 0 0 1 1.384 0c.222.018.367.06.436.128.033.035.033.069 0 .103h.051v-.256c.103 0 .187.018.256.051v-.154c.033-.068.17-.136.41-.205.308-.17.667-.119 1.077.154h.154c.103-.068.222-.077.359-.025a.67.67 0 0 0 .41.025c.205 0 .341.018.41.051a.724.724 0 0 0 .308-.051c.171 0 .341.018.513.051a.92.92 0 0 1 .385.154c.085.069.094.137.025.205-.069.069-.256.137-.564.205a3.443 3.443 0 0 0-.23.128c-.086.051-.163.025-.231-.077l-.154.154c-.069.069-.188.103-.359.103a.991.991 0 0 0-.667.026 1.864 1.864 0 0 1-.718.128c.034 0 .085.069.154.205.308.035.598.043.872.026.273-.017.581.009.923.077l-.051-.051.051-.051a4.494 4.494 0 0 0-.256-.077.932.932 0 0 1-.205-.077.341.341 0 0 1 .308-.051c.103.035.188.069.256.103.513-.068.709-.017.59.154-.12.171-.436.325-.949.461-.069.069-.171.069-.308 0h-.051v.051l-.051.051c0 .035-.009.051-.025.051-.018 0-.026.018-.026.051l.051.154h.103c.103.069.231.12.385.154.154.035.299.069.436.103 0 .035.017.051.051.051-.034.069-.043.12-.025.154.017.035-.009.086-.077.154l.051.051c-.137 0-.274.009-.41.026a.788.788 0 0 1-.359-.026h-.77l-.051.051c-.069.069-.146.095-.23.077a1.208 1.208 0 0 0-.231-.026c-.274 0-.461-.034-.564-.103l-.051-.051c-.239.103-.444.154-.615.154-.172 0-.342.069-.513.205-.342-.034-.718.035-1.128.205-.035 0-.12-.051-.256-.154-.103-.068-.111-.128-.026-.179.085-.051.077-.094-.025-.128-.205.069-.291.12-.256.154a.532.532 0 0 0 .179.103c.085.035.145.06.18.077.034.018-.069.025-.308.025-.069-.034-.128-.042-.18-.025a.542.542 0 0 1-.179.025c-.035 0-.069-.017-.103-.051a1.277 1.277 0 0 1-.872.103h-.103c-.171-.17-.316-.222-.436-.154-.12.069-.248.137-.384.205l-.051.051c-.171 0-.368.009-.59.026a2.098 2.098 0 0 1-.589-.026l-.051.051v.051c-.069 0-.103.035-.103.103a2.783 2.783 0 0 1-.615.103c-.171.137-.308.154-.41.051-.035.035-.06.051-.077.051-.018 0-.043.018-.077.051.068-.136.103-.222.103-.256-.103-.103-.256-.154-.461-.154-.069-.068-.171-.103-.308-.103a1.277 1.277 0 0 1-.666-.669zM75.322 168.047c-.035.273-.018.453.051.538.068.086.051.248-.051.487.068.068.136.188.205.358.068.172.085.291.051.359l-.205-.359c0 .069.008.18.026.333.017.154.008.266-.026.334-.035.034-.051.068-.051.103a40.338 40.338 0 0 0-.794 2.255c-.153.478-.351 1.076-.59 1.794 0 .034-.06.23-.179.59-.12.358-.256.795-.41 1.308s-.325 1.076-.513 1.691-.359 1.179-.513 1.691-.351 1.128-.59 1.846c0 .035-.034.052-.103.052h-.05c.068.068.094.137.077.205a.285.285 0 0 0 .025.205l-.308.615c-.034.034-.018.068.051.103.068.034.085.068.051.103l-.154.308a.457.457 0 0 0-.051.205c.068.068.051.223-.051.461-.103.24-.12.359-.051.359h.641c.29 0 .598-.008.923-.025.324-.018.641-.026.948-.026h.718c.103 0 .154.035.154.103v.154l.256.103c-.41.137-.752.171-1.025.103-.274-.068-.461-.085-.564-.052l-.103.052-.051.051a.213.213 0 0 1-.205 0 .474.474 0 0 0-.205-.051c-.069.034-.128.051-.179.051s-.111.018-.18.052H72.759c.136 0 .265.009.385.025.119.018.179.043.179.077s-.06.068-.179.103a6.18 6.18 0 0 1-.436.103.583.583 0 0 0-.256.051h-.154.154c.034-.033.12-.051.256-.051.171 0 .29.018.359.051.034 0 .051.035.051.103.376-.17.624-.247.744-.23.119.018.213.146.282.385-.034.034-.12.086-.256.153a2.116 2.116 0 0 0 0 0h-.051l-.308.308a.357.357 0 0 0-.103.359c.034 0 .06-.008.077-.025.017-.018.042-.026.077-.026.239.138.35.274.333.41-.018.138-.111.24-.282.308a8.39 8.39 0 0 1-1.666.231c-.53.018-1.069.043-1.615.076h-.257c.034.035.051.069.051.103a1.289 1.289 0 0 0-.308.564c0 .034-.034.12-.103.256-.171.479-.325.958-.461 1.436a6.526 6.526 0 0 1-.615 1.436c-.034.103-.094.394-.179.872l-.256 1.436c-.086.479-.146.846-.18 1.102-.034.257-.034.214 0-.128a.278.278 0 0 0-.077.257.414.414 0 0 1-.026.256.907.907 0 0 0-.051.282.314.314 0 0 1-.103.23c-.069.069-.12.103-.154.103 0 .034-.009.052-.025.052-.018 0-.026.018-.026.051 0 .137-.051.257-.154.359s-.188.223-.256.358c0 .103.017.188.051.257 0 .068-.018.103-.051.103-.034.034-.051.068-.051.103 0 .239-.051.461-.154.666s-.154.428-.154.667c-.034 0-.085.034-.154.103-.034.205-.06.418-.077.641a1.346 1.346 0 0 1-.231.641v.358c0 .171.034.29.103.359 0 .273-.154.461-.461.563-.239.137-.428.103-.563-.103-.103-.103-.146-.214-.128-.333a.466.466 0 0 0-.077-.333v-.154c.033-.034.084-.051.154-.051.341.273.392.529.154.769.17 0 .29-.051.359-.153l-.103-.103a.255.255 0 0 1 0-.308c-.069-.103-.103-.291-.103-.564a5.058 5.058 0 0 1-.077-.486 4.206 4.206 0 0 1-.025-.487v-.103c-.035-.033-.051-.103-.051-.205s-.035-.171-.103-.205a2.021 2.021 0 0 0-.103-.18c-.035-.051-.103-.094-.205-.128-.137 0-.205.025-.205.077a.435.435 0 0 1-.051.18c.103.239.051.393-.154.461-.103.069-.154.069-.154 0v.154h-.154v.102c-.24.137-.41.162-.513.077-.103-.086-.12-.196-.051-.333-.069-.341-.026-.769.128-1.281s.315-.94.487-1.282c0-.033.017-.06.051-.077.033-.017.068-.059.103-.128l.051-.051c.033-.376.084-.803.154-1.282.068-.479.17-.974.308-1.486.136-.513.282-1.008.436-1.487a11.7 11.7 0 0 1 .487-1.281c0-.068.034-.231.103-.487.068-.257.136-.538.205-.846.068-.308.145-.59.231-.846.085-.257.162-.437.23-.539v-.205a7.798 7.798 0 0 1-1.794 0 11.8 11.8 0 0 0-1.897-.051c-.171.273-.342.556-.513.846-.171.291-.342.573-.513.846.034.069.008.138-.077.205a3.016 3.016 0 0 0-.23.205h-.051c0 .035-.009.052-.026.052-.018 0-.025.018-.025.051a873.026 873.026 0 0 1-1.359 2.896c-.428.906-.761 1.547-1 1.923-.171.205-.316.41-.436.615-.12.205-.282.377-.487.513-.035.034-.171.034-.41 0a4.788 4.788 0 0 0-.461-.051.526.526 0 0 1-.282.103.945.945 0 0 1-.23-.026.528.528 0 0 0-.231 0c-.085.018-.163.095-.23.231a.473.473 0 0 0-.205-.129 6.319 6.319 0 0 1-.41-.128c-.205-.068-.282-.153-.23-.256s.11-.257.179-.462c-.035 0-.086-.017-.154-.051s-.103-.137-.103-.308c0-.239.06-.47.179-.692a5.8 5.8 0 0 0 .282-.59c.205-.341.375-.743.513-1.205.136-.461.393-.828.769-1.102.239-.205.359-.479.359-.82.103-.205.222-.427.359-.667a.788.788 0 0 1 .615-.41v-.051a.96.96 0 0 1 .179-.564c.12-.17.196-.358.231-.563 0-.034.059-.162.179-.385.12-.222.248-.47.385-.743l.384-.77c.12-.238.18-.375.18-.41.239-.272.453-.58.641-.923.188-.341.418-.58.692-.718l.051-.103c.103-.58.375-1.042.82-1.384.068-.068.103-.119.103-.154.034 0 .051-.017.051-.051v.051a.797.797 0 0 1-.154.205h.103c.068-.103.136-.196.205-.281.068-.085.136-.18.205-.282 0-.034-.018-.052-.051-.052-.069-.513.085-.965.461-1.358.375-.393.667-.795.872-1.205.068-.067.187-.289.359-.666.17-.376.35-.769.538-1.179a76.24 76.24 0 0 1 .846-1.795c.376-.718.803-1.427 1.282-2.128.479-.7.905-1.409 1.282-2.127.034-.034.051-.085.051-.154.068-.068.103-.119.103-.153.239-.308.41-.495.513-.564.136-.205.265-.436.385-.692.119-.256.264-.486.436-.691l.103-.359c.444-.103.744-.161.897-.18.154-.017.469.01.948.077.103-.272.273-.366.513-.281.239.085.308.23.205.436 0 .034-.018.068-.051.103v.051a.73.73 0 0 1-.051.308c0 .035-.009.061-.025.077-.018.018-.026.043-.026.077 0-.034.034-.052.103-.052.034.035.068.052.103.052.034 0 .068.018.103.051.103-.341.256-.726.461-1.153.205-.427.444-.623.718-.59.034.069.034.172 0 .308.068.103.128.214.18.334s.162.162.333.128v-.103c.273-.137.469-.146.59-.025a.568.568 0 0 1 .173.424zm-3.896 3.896c.068-.171.094-.231.077-.18-.018.051-.095.043-.231-.025-.205-.103-.333-.12-.384-.052a2.28 2.28 0 0 0-.18.308c-.069.069-.128.197-.179.385-.051.188-.111.3-.18.333-.034 0-.214.342-.538 1.025-.325.685-.675 1.436-1.051 2.256a88.987 88.987 0 0 1-1.589 3.229c-.308.41-.513.82-.615 1.23-.171.41-.444.881-.82 1.41-.377.53-.685 1-.923 1.41-.035.137-.069.223-.103.256-.035.035-.069.12-.103.257h1.461c.256 0 .478.009.667.025.188.018.315.025.384.025.034-.103.094-.341.18-.718.085-.375.179-.666.282-.871.034-.137.077-.248.128-.333s.077-.162.077-.231a.49.49 0 0 0 .154-.358c-.034-.034-.018-.06.051-.077.068-.017.085-.06.051-.128.034-.171.145-.495.333-.975a90.44 90.44 0 0 0 .641-1.691 290.934 290.934 0 0 1 1.538-4.05c.239-.615.436-1.146.59-1.59.154-.442.248-.733.282-.87zm-4.82 7.28v-.051.051z"/></g><path fill="#FFF" d="M134 241H8V8h126v65h-3V11H11v227h120v-73h3z"/></svg>